# xmcd
#
# Track frame offsets:
#	150
#	17091
#	32007
#	48739
#	68849
#	83076
#	108106
#	121837
#	151495
#	170812
#
# Disc length: 2442 seconds
# Revision: 0
# Processed by: cddbd v1.5.2PL0 Copyright (c) Steve Scherf et al.
# Submitted via: dBpowerAMP V12.0
#
DISCID=7b09880a
DTITLE=Don Lasater - Romancing The West
DYEAR=1900
DGENRE=Country
TTITLE0=Pals On The Range
TTITLE1=Big Cowboy Moon
TTITLE2=Riding After Rainbows
TTITLE3=Cimmaron
TTITLE4=Ranada
TTITLE5=Rose Of Albuquerque
TTITLE6=Lucky Horseshoe
TTITLE7=The Outlaw Song
TTITLE8=Colorado
TTITLE9=Sleepytime Ranch
EXTD=
EXTT0=
EXTT1=
EXTT2=
EXTT3=
EXTT4=
EXTT5=
EXTT6=
EXTT7=
EXTT8=
EXTT9=
PLAYORDER=
